# xmcd
#
# Track frame offsets:
#	150
#	11080
#	25912
#	40378
#	51143
#	63143
#	75181
#	89350
#	100835
#	116276
#	128152
#	137209
#	147219
#	158544
#	171334
#	185679
#	199709
#	214744
#	224684
#	234907
#
# Disc length: 3418 seconds
#
# Revision: 0
# Processed by: cddbd v1.5.2PL0 Copyright (c) Steve Scherf et al.
# Submitted via: dBpowerAMP V4.0
#
DISCID=110d5814
DTITLE=Stompin' Tom Connors - A Truly Proud Canadia
DYEAR=2014
DGENRE=Country
TTITLE0=Bud The Spud
TTITLE1=Long Gone To The Yukon
TTITLE2=Big Joe Mufferaw
TTITLE3=Moon Man Newfie
TTITLE4=Manitoba
TTITLE5=Prairie Moon
TTITLE6=Lady K.D. Lang
TTITLE7=My British Columbian Home
TTITLE8=Tillsonburg
TTITLE9=Canada Day Up Canada Way
TTITLE10=The Ketchup Song
TTITLE11=Gaspe Belle Faye
TTITLE12=New Brunswick and Mary
TTITLE13=The Isle's of Magdalen
TTITLE14=Down Nova Scotia Way
TTITLE15=When The iceworms Nest Again
TTITLE16=Margo's Cargo
TTITLE17=The Hockey Song
TTITLE18=Sudbury Saturday Night
TTITLE19=The Ballad of Stompin' Tom
EXTD=
EXTT0=
EXTT1=
EXTT2=
EXTT3=
EXTT4=
EXTT5=
EXTT6=
EXTT7=
EXTT8=
EXTT9=
EXTT10=
EXTT11=
EXTT12=
EXTT13=
EXTT14=
EXTT15=
EXTT16=
EXTT17=
EXTT18=
EXTT19=
PLAYORDER=
